STARTFONT 2.1
COMMENT 
COMMENT Converted from TrueType font "cour.ttf" by "ttf2bdf.exe 2.2".
COMMENT 
FONT -FreeType-Courier New-Medium-R-Normal--21-120-128-128-P-98-ISO10646-1
SIZE 12 128 128
FONTBOUNDINGBOX 15 35 -1 -6
STARTPROPERTIES 27
FAMILY_NAME "Courier New"
DEFAULT_CHAR -1
FOUNDRY "FreeType"
COPYRIGHT "Typeface © The Monotype Corporation plc. Data © The Monotype Corporation plc/Type Solutions Inc. 1990-1994. All Rights Reserved"
CODEPAGE "MS Windows 1250 Central European"
ENC_MODE 2
CREATION_YEAR 2001
WEIGHT_NAME "Medium"
SLANT "R"
SETWIDTH_NAME "Normal"
SPACING "P"
HI_VERSION 1
FONTNAME_REGISTRY "-"
CHARSET_REGISTRY "ISO10646"
CHARSET_ENCODING "1"
BREAK_CHAR 32
PIXEL_SIZE 21
POINT_SIZE 120
FONT_ASCENT 30
FONT_DESCENT 6
RESOLUTION_X 128
RESOLUTION_Y 128
AVERAGE_WIDTH 98
X_HEIGHT 15
CAP_HEIGHT 23
_TTF_FONTFILE "cour.ttf"
_TTF_PSNAME "CourierNewPSMT"
ENDPROPERTIES
CHARS 191
STARTCHAR 0020.uni0020
ENCODING 32
SWIDTH 562 0
DWIDTH 12 0
BBX 0 0 0 0
BITMAP
ENDCHAR
STARTCHAR 0021.uni0021
ENCODING 33
SWIDTH 609 0
DWIDTH 13 0
BBX 6 23 4 0
BITMAP
FC00
FC00
FC00
FC00
FC00
FC00
FC00
FC00
FC00
FC00
FC00
FC00
FC00
FC00
FC00
FC00
0000
0000
7800
FC00
FC00
FC00
7800
ENDCHAR
STARTCHAR 0022.uni0022
ENCODING 34
SWIDTH 609 0
DWIDTH 13 0
BBX 13 8 0 15
BITMAP
FDF8
FDF8
FDF8
78F0
78F0
78F0
3060
3060
ENDCHAR
STARTCHAR 0023.uni0023
ENCODING 35
SWIDTH 609 0
DWIDTH 13 0
BBX 14 21 -1 -2
BITMAP
1E78
1E78
1E78
1E78
1E78
7FFC
7FFC
7FFC
7FFC
3CF0
3CF0
3CF0
FFF8
FFF8
FFF8
FFF8
79E0
79E0
79E0
79E0
79E0
ENDCHAR
STARTCHAR 0024.uni0024
ENCODING 36
SWIDTH 609 0
DWIDTH 13 0
BBX 13 32 0 -4
BITMAP
1DC0
1DC0
1DC0
1DC0
1DC0
7FF0
FFF8
FFF8
FDF8
EDB8
EDB8
ED80
FD80
7D80
3F80
0F80
0FE0
0FF0
0DF0
0DF8
0DB8
EDB8
EDB8
FDF8
FDF8
FFF8
7FF0
3FE0
1DC0
1DC0
1DC0
1DC0
ENDCHAR
STARTCHAR 0025.uni0025
ENCODING 37
SWIDTH 609 0
DWIDTH 13 0
BBX 15 19 -1 -1
BITMAP
3E00
7F06
770E
631E
773E
7F7E
3EFC
01F8
03F0
07E0
0FC0
1F80
3F7C
7EFE
FCEE
F8C6
F0EE
E0FE
007C
ENDCHAR
STARTCHAR 0026.uni0026
ENCODING 38
SWIDTH 609 0
DWIDTH 13 0
BBX 14 23 -1 0
BITMAP
1F80
3FC0
7FE0
F9F0
F0F0
F0F0
F9F0
FFE0
7FE0
3FC0
1F80
1F3C
3F3C
7FBC
FFF8
F3F8
E1F0
E0F0
F0F0
F9F8
7FFC
3FFC
1F3C
ENDCHAR
STARTCHAR 0027.uni0027
ENCODING 39
SWIDTH 609 0
DWIDTH 13 0
BBX 7 8 3 15
BITMAP
FE00
FE00
FE00
7C00
7C00
7C00
3800
3800
ENDCHAR
STARTCHAR 0028.uni0028
ENCODING 40
SWIDTH 609 0
DWIDTH 13 0
BBX 7 29 5 -3
BITMAP
1E00
3E00
3E00
3E00
7C00
7C00
7C00
7C00
F800
F800
F800
F800
F800
F800
F800
F800
F800
F800
F800
F800
F800
7C00
7C00
7C00
7C00
3E00
3E00
3E00
1E00
ENDCHAR
STARTCHAR 0029.uni0029
ENCODING 41
SWIDTH 609 0
DWIDTH 13 0
BBX 7 29 3 -3
BITMAP
F000
F800
F800
F800
7C00
7C00
7C00
7C00
3E00
3E00
3E00
3E00
3E00
3E00
3E00
3E00
3E00
3E00
3E00
3E00
3E00
7C00
7C00
7C00
7C00
F800
F800
F800
F000
ENDCHAR
STARTCHAR 002A.uni002A
ENCODING 42
SWIDTH 609 0
DWIDTH 13 0
BBX 11 11 1 4
BITMAP
CE60
EEE0
7FC0
3F80
FFE0
FFE0
FFE0
3F80
7FC0
EEE0
CE60
ENDCHAR
STARTCHAR 002B.uni002B
ENCODING 43
SWIDTH 609 0
DWIDTH 13 0
BBX 11 13 1 1
BITMAP
1F00
1F00
1F00
1F00
FFE0
FFE0
FFE0
FFE0
FFE0
1F00
1F00
1F00
1F00
ENDCHAR
STARTCHAR 002C.uni002C
ENCODING 44
SWIDTH 609 0
DWIDTH 13 0
BBX 9 10 0 -4
BITMAP
1F80
1F80
1F80
1F00
3E00
3E00
7C00
7800
F800
F000
ENDCHAR
STARTCHAR 002D.uni002D
ENCODING 45
SWIDTH 609 0
DWIDTH 13 0
BBX 11 6 1 6
BITMAP
FFE0
FFE0
FFE0
FFE0
FFE0
FFE0
ENDCHAR
STARTCHAR 002E.uni002E
ENCODING 46
SWIDTH 609 0
DWIDTH 13 0
BBX 7 7 3 0
BITMAP
3800
7C00
FE00
FE00
FE00
7C00
3800
ENDCHAR
STARTCHAR 002F.uni002F
ENCODING 47
SWIDTH 609 0
DWIDTH 13 0
BBX 12 24 0 0
BITMAP
01F0
01F0
01F0
03E0
03E0
03E0
07C0
07C0
07C0
0F80
0F80
0F80
1F00
1F00
1F00
3E00
3E00
3E00
7C00
7C00
7C00
F800
F800
F800
ENDCHAR
STARTCHAR 0030.uni0030
ENCODING 48
SWIDTH 609 0
DWIDTH 13 0
BBX 13 23 0 0
BITMAP
1FC0
3FE0
7FF0
7FF0
FFF8
FDF8
F8F8
F8F8
F8F8
F8F8
F8F8
F8F8
F8F8
F8F8
F8F8
F8F8
F8F8
FDF8
FFF8
7FF0
7FF0
3FE0
1FC0
ENDCHAR
STARTCHAR 0031.uni0031
ENCODING 49
SWIDTH 609 0
DWIDTH 13 0
BBX 12 23 0 0
BITMAP
0FC0
0FC0
1FC0
1FC0
3FC0
3FC0
7FC0
7FC0
F7C0
F7C0
07C0
07C0
07C0
07C0
07C0
07C0
07C0
07C0
07C0
1FF0
1FF0
1FF0
1FF0
ENDCHAR
STARTCHAR 0032.uni0032
ENCODING 50
SWIDTH 609 0
DWIDTH 13 0
BBX 13 23 0 0
BITMAP
0F80
1FC0
3FE0
7FF0
7FF0
FDF8
F8F8
00F8
00F8
00F8
01F8
03F0
07E0
0FC0
1F80
3F00
7E00
FC00
FFF8
FFF8
FFF8
FFF8
FFF8
ENDCHAR
STARTCHAR 0033.uni0033
ENCODING 51
SWIDTH 609 0
DWIDTH 13 0
BBX 13 23 0 0
BITMAP
0F80
3FE0
7FF0
7FF0
FDF8
F8F8
00F8
00F8
01F8
07F0
07F0
07E0
07E0
01F0
00F8
00F8
F8F8
FDF8
FFF8
7FF0
7FF0
3FE0
0F80
ENDCHAR
STARTCHAR 0034.uni0034
ENCODING 52
SWIDTH 609 0
DWIDTH 13 0
BBX 14 23 0 0
BITMAP
00F8
01F8
03F8
03F8
07F8
0FF8
0FF8
1FF8
3EF8
3CF8
7CF8
F8F8
FFFC
FFFC
FFFC
FFFC
FFFC
00F8
00F8
00F8
00F8
00F8
00F8
ENDCHAR
STARTCHAR 0035.uni0035
ENCODING 53
SWIDTH 609 0
DWIDTH 13 0
BBX 13 23 0 0
BITMAP
FFF8
FFF8
FFF8
FFF8
FFF8
F800
F800
FFC0
FFE0
FFF0
FFF0
FFF8
FDF8
F8F8
00F8
00F8
00F8
F8F8
FDF8
FFF0
7FF0
3FE0
0F80
ENDCHAR
STARTCHAR 0036.uni0036
ENCODING 54
SWIDTH 609 0
DWIDTH 13 0
BBX 13 23 0 0
BITMAP
0F80
3FE0
7FF0
7FF8
FFF8
FDF8
F8F8
F800
F800
F800
FF80
FFE0
FFF0
FFF0
FFF8
F8F8
F8F8
F8F8
FDF8
7FF0
7FF0
3FE0
0F80
ENDCHAR
STARTCHAR 0037.uni0037
ENCODING 55
SWIDTH 609 0
DWIDTH 13 0
BBX 14 23 0 0
BITMAP
FFFC
FFFC
FFFC
FFFC
FFFC
F8F8
00F8
00F8
01F0
01F0
01F0
03E0
03E0
03E0
07C0
07C0
07C0
0F80
0F80
0F80
1F00
1F00
1F00
ENDCHAR
STARTCHAR 0038.uni0038
ENCODING 56
SWIDTH 609 0
DWIDTH 13 0
BBX 13 23 0 0
BITMAP
0F80
3FE0
7FF0
7FF0
FFF8
FDF8
F8F8
F8F8
F8F8
7FF0
7FF0
3FE0
7FF0
FFF8
F8F8
F8F8
F8F8
FDF8
FFF8
7FF0
7FF0
3FE0
0F80
ENDCHAR
STARTCHAR 0039.uni0039
ENCODING 57
SWIDTH 609 0
DWIDTH 13 0
BBX 13 23 0 0
BITMAP
0F80
3FE0
7FF0
7FF0
FDF8
F8F8
F8F8
F8F8
F8F8
FFF8
7FF8
7FF8
3FF8
0FF8
00F8
00F8
F8F8
FDF8
FFF8
FFF0
7FF0
3FE0
0F80
ENDCHAR
STARTCHAR 003A.uni003A
ENCODING 58
SWIDTH 609 0
DWIDTH 13 0
BBX 6 14 3 2
BITMAP
7800
FC00
FC00
FC00
FC00
7800
0000
0000
7800
FC00
FC00
FC00
FC00
7800
ENDCHAR
STARTCHAR 003B.uni003B
ENCODING 59
SWIDTH 609 0
DWIDTH 13 0
BBX 9 18 0 -4
BITMAP
0F00
1F80
1F80
1F80
1F80
0F00
0000
0000
1F80
1F80
1F80
1F00
3E00
3E00
7C00
7800
F800
F000
ENDCHAR
STARTCHAR 003C.uni003C
ENCODING 60
SWIDTH 609 0
DWIDTH 13 0
BBX 14 17 -1 -1
BITMAP
001C
007C
01FC
07FC
1FF8
7FE0
FF80
FE00
F800
FE00
FF80
7FE0
1FF8
07FC
01FC
007C
001C
ENDCHAR
STARTCHAR 003D.uni003D
ENCODING 61
SWIDTH 609 0
DWIDTH 13 0
BBX 13 13 0 3
BITMAP
FFF8
FFF8
FFF8
FFF8
FFF8
0000
0000
0000
FFF8
FFF8
FFF8
FFF8
FFF8
ENDCHAR
STARTCHAR 003E.uni003E
ENCODING 62
SWIDTH 609 0
DWIDTH 13 0
BBX 14 17 0 -1
BITMAP
E000
F800
FE00
FF80
7FE0
1FF8
07FC
01FC
007C
01FC
07FC
1FF8
7FE0
FF80
FE00
F800
E000
ENDCHAR
STARTCHAR 003F.uni003F
ENCODING 63
SWIDTH 609 0
DWIDTH 13 0
BBX 13 23 0 0
BITMAP
0F80
3FE0
7FF0
7FF0
FFF8
F8F8
00F8
00F8
01F8
03F0
07F0
0FE0
0FC0
0F80
0F80
0F80
0000
0000
0700
0F80
0F80
0F80
0700
ENDCHAR
STARTCHAR 0040.uni0040
ENCODING 64
SWIDTH 609 0
DWIDTH 13 0
BBX 15 21 -1 0
BITMAP
0FE0
1FF0
3FF8
7FFC
7FFC
FC7E
F9FE
FBFE
FBFE
FBCE
FBCE
FBFE
FBFC
F9FC
F8F8
FC00
7FE0
7FE0
3FE0
1FE0
0FE0
ENDCHAR
STARTCHAR 0041.uni0041
ENCODING 65
SWIDTH 609 0
DWIDTH 13 0
BBX 15 23 -1 0
BITMAP
0FE0
0FE0
0FE0
0FE0
0FE0
1FF0
1FF0
1EF0
1EF0
3EF8
3EF8
3C78
3C78
7FFC
7FFC
7FFC
7FFC
783C
F83E
FC7E
FC7E
FC7E
FC7E
ENDCHAR
STARTCHAR 0042.uni0042
ENCODING 66
SWIDTH 609 0
DWIDTH 13 0
BBX 13 23 0 0
BITMAP
FF00
FFC0
FFE0
FFF0
FBF0
F9F0
F9F0
FBF0
FFE0
FFC0
FFE0
FFF0
F9F8
F8F8
F8F8
F8F8
F8F8
F8F8
F9F8
FFF0
FFF0
FFE0
FF80
ENDCHAR
STARTCHAR 0043.uni0043
ENCODING 67
SWIDTH 609 0
DWIDTH 13 0
BBX 13 23 0 0
BITMAP
1FC0
3FE0
7FF0
7FF0
FFF8
F9F8
F8F8
F8F8
F800
F800
F800
F800
F800
F800
F800
F8F8
F8F8
F9F8
FFF8
FFF8
7FF8
3FF0
1FE0
ENDCHAR
STARTCHAR 0044.uni0044
ENCODING 68
SWIDTH 609 0
DWIDTH 13 0
BBX 13 23 0 0
BITMAP
FFC0
FFE0
FFE0
FFF0
FFF0
F9F8
F8F8
F8F8
F8F8
F8F8
F8F8
F8F8
F8F8
F8F8
F8F8
F8F8
F8F8
F9F8
FFF0
FFF0
FFE0
FFE0
FFC0
ENDCHAR
STARTCHAR 0045.uni0045
ENCODING 69
SWIDTH 609 0
DWIDTH 13 0
BBX 13 23 0 0
BITMAP
FFF8
FFF8
FFF8
FFF8
FFF8
F800
F800
F800
FFE0
FFE0
FFE0
FFE0
FFE0
F800
F800
F800
F800
F800
FFF8
FFF8
FFF8
FFF8
FFF8
ENDCHAR
STARTCHAR 0046.uni0046
ENCODING 70
SWIDTH 609 0
DWIDTH 13 0
BBX 13 23 0 0
BITMAP
FFF8
FFF8
FFF8
FFF8
FFF8
F800
F800
F800
FFE0
FFE0
FFE0
FFE0
FFE0
F800
F800
F800
F800
F800
F800
F800
F800
F800
F800
ENDCHAR
STARTCHAR 0047.uni0047
ENCODING 71
SWIDTH 609 0
DWIDTH 13 0
BBX 13 23 0 0
BITMAP
3FC0
7FE0
7FF0
FFF0
F9F8
F8F8
F8F8
F8F8
F800
F800
F800
F9F8
F9F8
F9F8
F9F8
F8F8
F8F8
F9F8
FFF8
FFF0
7FF0
7FE0
3FC0
ENDCHAR
STARTCHAR 0048.uni0048
ENCODING 72
SWIDTH 609 0
DWIDTH 13 0
BBX 13 23 0 0
BITMAP
F8F8
F8F8
F8F8
F8F8
F8F8
F8F8
F8F8
F8F8
FFF8
FFF8
FFF8
FFF8
FFF8
F8F8
F8F8
F8F8
F8F8
F8F8
F8F8
F8F8
F8F8
F8F8
F8F8
ENDCHAR
STARTCHAR 0049.uni0049
ENCODING 73
SWIDTH 609 0
DWIDTH 13 0
BBX 13 23 0 0
BITMAP
FFF8
FFF8
FFF8
FFF8
0F80
0F80
0F80
0F80
0F80
0F80
0F80
0F80
0F80
0F80
0F80
0F80
0F80
0F80
0F80
FFF8
FFF8
FFF8
FFF8
ENDCHAR
STARTCHAR 004A.uni004A
ENCODING 74
SWIDTH 609 0
DWIDTH 13 0
BBX 13 23 0 0
BITMAP
FFF8
FFF8
FFF8
FFF8
FFF8
F8F8
F8F8
00F8
00F8
00F8
00F8
00F8
00F8
00F8
00F8
F8F8
F8F8
FDF8
FFF8
FFF8
7FF0
3FE0
1FC0
ENDCHAR
STARTCHAR 004B.uni004B
ENCODING 75
SWIDTH 609 0
DWIDTH 13 0
BBX 13 23 0 0
BITMAP
F878
F878
F8F8
F8F8
F9F0
F9F0
FBE0
FBE0
FBC0
FFC0
FF80
FFC0
FFC0
FFC0
FFE0
FFE0
FFE0
F9F0
F9F0
F9F0
F8F8
F8F8
F8F8
ENDCHAR
STARTCHAR 004C.uni004C
ENCODING 76
SWIDTH 609 0
DWIDTH 13 0
BBX 13 23 0 0
BITMAP
FC00
FC00
FC00
FC00
FC00
FC00
FC00
FC00
FC00
FC00
FC00
FC00
FC00
FC00
FC00
FC00
FC00
FC00
FFF8
FFF8
FFF8
FFF8
FFF8
ENDCHAR
STARTCHAR 004D.uni004D
ENCODING 77
SWIDTH 609 0
DWIDTH 13 0
BBX 13 23 0 0
BITMAP
F8F8
F8F8
F8F8
FDF8
FDF8
FDF8
FFF8
FFF8
FFF8
FFF8
FFF8
FFF8
FAF8
F8F8
F8F8
F8F8
F8F8
F8F8
F8F8
F8F8
F8F8
F8F8
F8F8
ENDCHAR
STARTCHAR 004E.uni004E
ENCODING 78
SWIDTH 609 0
DWIDTH 13 0
BBX 13 23 0 0
BITMAP
F8F8
F8F8
F8F8
FCF8
FCF8
FCF8
FEF8
FEF8
FEF8
FEF8
FFF8
FFF8
FBF8
FBF8
FBF8
FBF8
F9F8
F9F8
F9F8
F9F8
F8F8
F8F8
F8F8
ENDCHAR
STARTCHAR 004F.uni004F
ENCODING 79
SWIDTH 609 0
DWIDTH 13 0
BBX 13 23 0 0
BITMAP
0F80
3FE0
7FF0
7FF0
FFF8
FDF8
F8F8
F8F8
F8F8
F8F8
F8F8
F8F8
F8F8
F8F8
F8F8
F8F8
F8F8
FDF8
FFF8
7FF0
7FF0
3FE0
0F80
ENDCHAR
STARTCHAR 0050.uni0050
ENCODING 80
SWIDTH 609 0
DWIDTH 13 0
BBX 13 23 0 0
BITMAP
FFC0
FFE0
FFF0
FFF8
FFF8
F8F8
F878
F878
F8F8
FFF8
FFF8
FFF0
FFE0
FFC0
F800
F800
F800
F800
F800
F800
F800
F800
F800
ENDCHAR
STARTCHAR 0051.uni0051
ENCODING 81
SWIDTH 609 0
DWIDTH 13 0
BBX 13 23 0 0
BITMAP
0F80
3FE0
7FF0
7FF0
FFF8
FDF8
F8F8
F8F8
F8F8
F8F8
F8F8
F8F8
F8F8
F8F8
F8F8
FBF8
FBF8
FDF8
FFF8
7FF0
7FF8
3FF8
0FB8
ENDCHAR
STARTCHAR 0052.uni0052
ENCODING 82
SWIDTH 609 0
DWIDTH 13 0
BBX 13 23 0 0
BITMAP
FFC0
FFE0
FFF0
FFF8
FFF8
F9F8
F8F8
F8F8
F9F8
FFF8
FFF0
FFE0
FFC0
FFC0
FBE0
FBE0
FBE0
F9F0
F9F0
F9F0
F8F8
F8F8
F8F8
ENDCHAR
STARTCHAR 0053.uni0053
ENCODING 83
SWIDTH 609 0
DWIDTH 13 0
BBX 13 23 0 0
BITMAP
1FC0
3FE0
7FF0
FFF8
FFF8
FCF8
F8F8
FC00
FE00
7F80
3FE0
1FF0
0FF8
03F8
01F8
F8F8
F8F8
F9F8
FFF8
FFF8
7FF0
3FE0
1FC0
ENDCHAR
STARTCHAR 0054.uni0054
ENCODING 84
SWIDTH 609 0
DWIDTH 13 0
BBX 13 23 0 0
BITMAP
FFF8
FFF8
FFF8
FFF8
FFF8
0F80
0F80
0F80
0F80
0F80
0F80
0F80
0F80
0F80
0F80
0F80
0F80
0F80
0F80
0F80
0F80
0F80
0F80
ENDCHAR
STARTCHAR 0055.uni0055
ENCODING 85
SWIDTH 609 0
DWIDTH 13 0
BBX 15 23 -1 0
BITMAP
F83E
F83E
F83E
F83E
F83E
F83E
F83E
F83E
F83E
F83E
F83E
F83E
F83E
F83E
F83E
F83E
F83E
F83E
FC7E
FFFE
7FFC
3FF8
1FF0
ENDCHAR
STARTCHAR 0056.uni0056
ENCODING 86
SWIDTH 609 0
DWIDTH 13 0
BBX 15 23 -1 0
BITMAP
F83E
F83E
F83E
F83E
7C7C
7C7C
7C7C
7C7C
3EF8
3EF8
3EF8
3EF8
1FF0
1FF0
1FF0
1FF0
0FE0
0FE0
0FE0
0FE0
07C0
07C0
07C0
ENDCHAR
STARTCHAR 0057.uni0057
ENCODING 87
SWIDTH 609 0
DWIDTH 13 0
BBX 15 23 -1 0
BITMAP
F83E
F83E
F83E
F83E
F83E
F83E
F83E
F83E
F83E
F83E
F83E
7BBC
7BBC
7BBC
7FFC
7FFC
7FFC
7FFC
3EF8
3EF8
3EF8
3EF8
3EF8
ENDCHAR
STARTCHAR 0058.uni0058
ENCODING 88
SWIDTH 609 0
DWIDTH 13 0
BBX 14 23 -1 0
BITMAP
F87C
F87C
F87C
7CF8
7CF8
3FF0
3FF0
1FE0
1FE0
0FC0
0FC0
0FC0
0FC0
0FC0
1FE0
1FE0
3FF0
3FF0
7CF8
7CF8
F87C
F87C
F87C
ENDCHAR
STARTCHAR 0059.uni0059
ENCODING 89
SWIDTH 609 0
DWIDTH 13 0
BBX 15 23 -1 0
BITMAP
F83E
F83E
F83E
7C7C
7C7C
3EF8
3EF8
1FF0
1FF0
0FE0
0FE0
07C0
07C0
07C0
07C0
07C0
07C0
07C0
07C0
07C0
07C0
07C0
07C0
ENDCHAR
STARTCHAR 005A.uni005A
ENCODING 90
SWIDTH 609 0
DWIDTH 13 0
BBX 13 23 0 0
BITMAP
FFF8
FFF8
FFF8
FFF8
FFF8
00F8
01F8
01F0
03E0
07E0
07C0
0FC0
0F80
1F80
3F00
3E00
7E00
FC00
FFF8
FFF8
FFF8
FFF8
FFF8
ENDCHAR
STARTCHAR 005B.uni005B
ENCODING 91
SWIDTH 609 0
DWIDTH 13 0
BBX 9 26 3 -3
BITMAP
FF80
FF80
FF80
FF80
FF80
F800
F800
F800
F800
F800
F800
F800
F800
F800
F800
F800
F800
F800
F800
F800
F800
FF80
FF80
FF80
FF80
FF80
ENDCHAR
STARTCHAR 005C.uni005C
ENCODING 92
SWIDTH 609 0
DWIDTH 13 0
BBX 12 24 1 0
BITMAP
F800
F800
F800
7C00
7C00
7C00
3E00
3E00
3E00
1F00
1F00
1F00
0F80
0F80
0F80
07C0
07C0
07C0
03E0
03E0
03E0
01F0
01F0
01F0
ENDCHAR
STARTCHAR 005D.uni005D
ENCODING 93
SWIDTH 609 0
DWIDTH 13 0
BBX 9 26 1 -3
BITMAP
FF80
FF80
FF80
FF80
FF80
0F80
0F80
0F80
0F80
0F80
0F80
0F80
0F80
0F80
0F80
0F80
0F80
0F80
0F80
0F80
0F80
FF80
FF80
FF80
FF80
FF80
ENDCHAR
STARTCHAR 005E.uni005E
ENCODING 94
SWIDTH 609 0
DWIDTH 13 0
BBX 13 9 0 14
BITMAP
0700
0F80
1FC0
3FE0
7FF0
FFF8
FDF8
F8F8
F078
ENDCHAR
STARTCHAR 005F.uni005F
ENCODING 95
SWIDTH 609 0
DWIDTH 13 0
BBX 13 5 0 -5
BITMAP
FFF8
FFF8
FFF8
FFF8
FFF8
ENDCHAR
STARTCHAR 0060.uni0060
ENCODING 96
SWIDTH 609 0
DWIDTH 13 0
BBX 8 8 2 16
BITMAP
F000
F800
FC00
FE00
7F00
3F00
1F00
0F00
ENDCHAR
STARTCHAR 0061.uni0061
ENCODING 97
SWIDTH 609 0
DWIDTH 13 0
BBX 13 15 0 0
BITMAP
3FC0
7FE0
FFF0
FFF8
F0F8
0078
7FF8
FFF8
FFF8
F0F8
FFF8
FFF8
FFF8
7FF8
3F38
ENDCHAR
STARTCHAR 0062.uni0062
ENCODING 98
SWIDTH 609 0
DWIDTH 13 0
BBX 13 23 0 0
BITMAP
F800
F800
F800
F800
F800
F800
F800
F800
FF80
FFE0
FFF0
FFF0
FFF8
F9F8
F8F8
F8F8
F8F8
F9F8
FFF8
FFF0
FFF0
FFE0
FF80
ENDCHAR
STARTCHAR 0063.uni0063
ENCODING 99
SWIDTH 609 0
DWIDTH 13 0
BBX 13 15 0 0
BITMAP
1FC0
3FE0
7FF0
FFF8
FFF8
F8F8
F800
F800
F800
F8F8
FFF8
FFF8
7FF0
3FE0
1FC0
ENDCHAR
STARTCHAR 0064.uni0064
ENCODING 100
SWIDTH 609 0
DWIDTH 13 0
BBX 13 23 0 0
BITMAP
00F8
00F8
00F8
00F8
00F8
00F8
00F8
00F8
0FF8
3FF8
7FF8
7FF8
F9F8
F0F8
F0F8
F0F8
F0F8
F0F8
F9F8
7FF8
7FF8
3FF8
0FF8
ENDCHAR
STARTCHAR 0065.uni0065
ENCODING 101
SWIDTH 609 0
DWIDTH 13 0
BBX 13 15 0 0
BITMAP
3FE0
7FF0
FFF8
FFF8
FCF8
F878
FFF8
FFF8
FFF8
F800
F8F8
FFF8
FFF8
7FF0
3FE0
ENDCHAR
STARTCHAR 0066.uni0066
ENCODING 102
SWIDTH 609 0
DWIDTH 13 0
BBX 12 23 0 0
BITMAP
03E0
07E0
0FE0
1FE0
1FE0
1F80
1F00
1F00
FFF0
FFF0
FFF0
FFF0
FFF0
1F00
1F00
1F00
1F00
1F00
1F00
1F00
1F00
1F00
1F00
ENDCHAR
STARTCHAR 0067.uni0067
ENCODING 103
SWIDTH 609 0
DWIDTH 13 0
BBX 13 21 0 -6
BITMAP
3EF8
7FF8
FFF8
FFF8
FFF8
FFF8
F8F8
F8F8
F8F8
F9F8
FFF8
FFF8
FFF8
7FF8
3EF8
00F8
7FF8
7FF8
7FF8
7FF0
7FE0
ENDCHAR
STARTCHAR 0068.uni0068
ENCODING 104
SWIDTH 609 0
DWIDTH 13 0
BBX 15 23 -1 0
BITMAP
F800
F800
F800
F800
F800
F800
F800
F800
FFF0
FFFC
FFFC
FFFE
FFFE
FC7E
F83E
F83E
F83E
F83E
F83E
F83E
F83E
F83E
F83E
ENDCHAR
STARTCHAR 0069.uni0069
ENCODING 105
SWIDTH 609 0
DWIDTH 13 0
BBX 11 22 1 0
BITMAP
0E00
1F00
1F00
1F00
0E00
0000
0000
FF00
FF00
FF00
FF00
FF00
1F00
1F00
1F00
1F00
1F00
FFE0
FFE0
FFE0
FFE0
FFE0
ENDCHAR
STARTCHAR 006A.uni006A
ENCODING 106
SWIDTH 609 0
DWIDTH 13 0
BBX 12 28 0 -6
BITMAP
0380
07C0
07C0
07C0
0380
0000
0000
FFF0
FFF0
FFF0
FFF0
FFF0
01F0
01F0
01F0
01F0
01F0
01F0
01F0
01F0
01F0
03F0
E7F0
FFE0
FFE0
FFC0
FF80
3E00
ENDCHAR
STARTCHAR 006B.uni006B
ENCODING 107
SWIDTH 609 0
DWIDTH 13 0
BBX 14 23 0 0
BITMAP
F800
F800
F800
F800
F800
F800
F838
F878
F8F8
F9F8
FBF0
FFE0
FFC0
FFC0
FFC0
FFE0
FFE0
FDF0
F9F0
F8F8
F8F8
F87C
F87C
ENDCHAR
STARTCHAR 006C.uni006C
ENCODING 108
SWIDTH 609 0
DWIDTH 13 0
BBX 11 23 1 0
BITMAP
FF00
FF00
FF00
FF00
FF00
1F00
1F00
1F00
1F00
1F00
1F00
1F00
1F00
1F00
1F00
1F00
1F00
1F00
FFE0
FFE0
FFE0
FFE0
FFE0
ENDCHAR
STARTCHAR 006D.uni006D
ENCODING 109
SWIDTH 609 0
DWIDTH 13 0
BBX 15 15 -1 0
BITMAP
EEF8
FFFC
FFFE
FFFE
FBBE
FBBE
FBBE
FBBE
FBBE
FBBE
FBBE
FBBE
FBBE
FBBE
FBBE
ENDCHAR
STARTCHAR 006E.uni006E
ENCODING 110
SWIDTH 609 0
DWIDTH 13 0
BBX 15 15 -1 0
BITMAP
F7F8
FFFC
FFFE
FFFE
FFFE
FC7E
F83E
F83E
F83E
F83E
F83E
F83E
F83E
F83E
F83E
ENDCHAR
STARTCHAR 006F.uni006F
ENCODING 111
SWIDTH 609 0
DWIDTH 13 0
BBX 13 15 0 0
BITMAP
1FC0
7FF0
7FF0
FFF8
FFF8
FDF8
F8F8
F8F8
F8F8
FDF8
FFF8
FFF8
7FF0
7FF0
1FC0
ENDCHAR
STARTCHAR 0070.uni0070
ENCODING 112
SWIDTH 609 0
DWIDTH 13 0
BBX 13 21 0 -6
BITMAP
FF80
FFE0
FFF0
FFF0
FFF8
F9F8
F8F8
F8F8
F8F8
F9F8
FFF8
FFF0
FFF0
FFE0
FF80
F800
F800
F800
F800
F800
F800
ENDCHAR
STARTCHAR 0071.uni0071
ENCODING 113
SWIDTH 609 0
DWIDTH 13 0
BBX 13 21 0 -6
BITMAP
0FF8
3FF8
7FF8
7FF8
FFF8
FCF8
F8F8
F8F8
F8F8
FCF8
FFF8
7FF8
7FF8
3FF8
0FF8
00F8
00F8
00F8
00F8
00F8
00F8
ENDCHAR
STARTCHAR 0072.uni0072
ENCODING 114
SWIDTH 609 0
DWIDTH 13 0
BBX 14 15 -1 0
BITMAP
FBF0
FFF8
FFFC
FFFC
FFFC
FC7C
F800
F800
F800
F800
F800
F800
F800
F800
F800
ENDCHAR
STARTCHAR 0073.uni0073
ENCODING 115
SWIDTH 609 0
DWIDTH 13 0
BBX 13 15 0 0
BITMAP
3FF0
7FF8
FFF8
FFF8
F838
FF00
7FC0
3FF0
07F8
F1F8
F0F8
FFF8
FFF8
7FF0
3FE0
ENDCHAR
STARTCHAR 0074.uni0074
ENCODING 116
SWIDTH 609 0
DWIDTH 13 0
BBX 14 23 -1 0
BITMAP
3E00
3E00
3E00
3E00
3E00
3E00
3E00
3E00
FFF0
FFF0
FFF0
FFF0
FFF0
3E00
3E00
3E00
3E7C
3E7C
3F7C
3FF8
3FF8
1FF0
0FE0
ENDCHAR
STARTCHAR 0075.uni0075
ENCODING 117
SWIDTH 609 0
DWIDTH 13 0
BBX 15 15 -1 0
BITMAP
FC3E
FC3E
FC3E
FC3E
FC3E
7C3E
7C3E
7C3E
7C3E
7E3E
7FFE
7FFE
3FFE
3FFE
0FDE
ENDCHAR
STARTCHAR 0076.uni0076
ENCODING 118
SWIDTH 609 0
DWIDTH 13 0
BBX 15 15 -1 0
BITMAP
F83E
F83E
F83E
F83E
F83E
F83E
7C7C
7C7C
7C7C
3EF8
3EF8
3EF8
1FF0
1FF0
1FF0
ENDCHAR
STARTCHAR 0077.uni0077
ENCODING 119
SWIDTH 609 0
DWIDTH 13 0
BBX 15 15 -1 0
BITMAP
FBBE
FBBE
FBBE
FBBE
FBBE
FBBE
7BBC
7BBC
7BBC
7FFC
7FFC
3FF8
3FF8
3D78
3D78
ENDCHAR
STARTCHAR 0078.uni0078
ENCODING 120
SWIDTH 609 0
DWIDTH 13 0
BBX 14 15 -1 0
BITMAP
F87C
F87C
F87C
FCFC
7FF8
3FF0
1FE0
0FC0
1FE0
3FF0
7FF8
FCFC
F87C
F87C
F87C
ENDCHAR
STARTCHAR 0079.uni0079
ENCODING 121
SWIDTH 609 0
DWIDTH 13 0
BBX 15 21 -1 -6
BITMAP
F83E
F83E
F83E
F83E
7C7C
7C7C
7C7C
3EF8
3EF8
3EF8
1EF0
1FF0
1FF0
0FE0
0FE0
03C0
1BC0
1FC0
1FC0
1F80
1F00
ENDCHAR
STARTCHAR 007A.uni007A
ENCODING 122
SWIDTH 609 0
DWIDTH 13 0
BBX 13 15 0 0
BITMAP
FFF8
FFF8
FFF8
FFF8
FFF8
07F0
0FE0
1FC0
3F80
7F00
FFF8
FFF8
FFF8
FFF8
FFF8
ENDCHAR
STARTCHAR 007B.uni007B
ENCODING 123
SWIDTH 609 0
DWIDTH 13 0
BBX 11 26 2 -3
BITMAP
0FE0
1FE0
3FE0
3FE0
3FE0
3F00
3E00
3E00
3E00
3E00
7E00
F800
F800
F800
7E00
3E00
3E00
3E00
3E00
3E00
3F00
3FE0
3FE0
3FE0
1FE0
0FE0
ENDCHAR
STARTCHAR 007C.uni007C
ENCODING 124
SWIDTH 609 0
DWIDTH 13 0
BBX 5 23 4 0
BITMAP
F800
F800
F800
F800
F800
F800
F800
F800
F800
F800
F800
F800
F800
F800
F800
F800
F800
F800
F800
F800
F800
F800
F800
ENDCHAR
STARTCHAR 007D.uni007D
ENCODING 125
SWIDTH 609 0
DWIDTH 13 0
BBX 11 26 0 -3
BITMAP
7E00
7F00
7F80
7F80
7F80
1F80
0F80
0F80
0F80
0F80
0FC0
03E0
03E0
03E0
0FC0
0F80
0F80
0F80
0F80
0F80
1F80
FF80
FF80
FF80
FF00
FE00
ENDCHAR
STARTCHAR 007E.uni007E
ENCODING 126
SWIDTH 609 0
DWIDTH 13 0
BBX 15 8 -1 7
BITMAP
3E00
7F1E
7F9E
FF9E
F3FE
F3FC
F1FC
00F8
ENDCHAR
STARTCHAR 00A0.uni00A0
ENCODING 160
SWIDTH 562 0
DWIDTH 12 0
BBX 0 0 0 0
BITMAP
ENDCHAR
STARTCHAR 00A1.uni00A1
ENCODING 161
SWIDTH 609 0
DWIDTH 13 0
BBX 5 23 4 -5
BITMAP
7000
F800
F800
F800
7000
0000
0000
F800
F800
F800
F800
F800
F800
F800
F800
F800
F800
F800
F800
F800
F800
F800
F800
ENDCHAR
STARTCHAR 00A2.uni00A2
ENCODING 162
SWIDTH 609 0
DWIDTH 13 0
BBX 13 29 0 -3
BITMAP
0F80
0F80
0F80
3FC0
7FF0
FFF0
FFF8
FFF8
F9F8
F8F8
F8F8
F800
F800
F800
F800
F800
F800
F800
F878
F878
F8F8
FFF8
FFF8
FFF0
7FF0
3FC0
0F80
0F80
0F80
ENDCHAR
STARTCHAR 00A3.uni00A3
ENCODING 163
SWIDTH 609 0
DWIDTH 13 0
BBX 14 23 -1 0
BITMAP
3FC0
7FE0
FFF0
FFF0
F9F0
F1F0
F800
FE00
3F00
1F00
7FF0
7FF0
7FF0
7FF0
7FF0
0F00
0F3C
0F7C
7FFC
7FFC
7FFC
7FF8
7FF0
ENDCHAR
STARTCHAR 00A4.uni00A4
ENCODING 164
SWIDTH 609 0
DWIDTH 13 0
BBX 14 23 -1 0
BITMAP
0FF0
1FF8
1FFC
3FFC
3FFC
3E3C
3E00
FF80
FF80
FF80
3E00
3E00
3E00
FF80
FF80
FF80
3E00
3E3C
3FFC
3FFC
1FFC
1FF8
0FF0
ENDCHAR
STARTCHAR 00A5.uni00A5
ENCODING 165
SWIDTH 609 0
DWIDTH 13 0
BBX 15 23 -1 0
BITMAP
F83E
F83E
F83E
7C7C
7C7C
3EF8
3EF8
1FF0
1FF0
0FE0
0FE0
3FF8
3FF8
3FF8
07C0
07C0
07C0
3FF8
3FF8
3FF8
07C0
07C0
07C0
ENDCHAR
STARTCHAR 00A6.uni00A6
ENCODING 166
SWIDTH 609 0
DWIDTH 13 0
BBX 5 21 4 0
BITMAP
F800
F800
F800
F800
F800
F800
F800
F800
F800
0000
0000
0000
F800
F800
F800
F800
F800
F800
F800
F800
F800
ENDCHAR
STARTCHAR 00A7.uni00A7
ENCODING 167
SWIDTH 609 0
DWIDTH 13 0
BBX 15 23 -1 0
BITMAP
1FC0
3FE0
7FF0
FFF8
FCF8
F800
FF80
FFC0
FFE0
F9F0
F8F8
7C7C
3E3E
1F3E
0FFE
07FE
03FE
003E
3E7E
3FFE
1FFC
0FF8
07F0
ENDCHAR
STARTCHAR 00A8.uni00A8
ENCODING 168
SWIDTH 609 0
DWIDTH 13 0
BBX 11 5 1 15
BITMAP
71C0
FBE0
FBE0
FBE0
71C0
ENDCHAR
STARTCHAR 00A9.uni00A9
ENCODING 169
SWIDTH 609 0
DWIDTH 13 0
BBX 15 19 -1 -1
BITMAP
0FE0
1FF0
3FF8
7FFC
FFFE
F83E
F39E
F7DE
F6DE
F61E
F6DE
F7DE
F39E
F83E
FFFE
7FFC
3FF8
1FF0
0FE0
ENDCHAR
STARTCHAR 00AA.uni00AA
ENCODING 170
SWIDTH 609 0
DWIDTH 13 0
BBX 8 9 3 7
BITMAP
7800
FC00
FE00
0E00
7E00
FE00
EE00
FF00
7700
ENDCHAR
STARTCHAR 00AB.uni00AB
ENCODING 171
SWIDTH 609 0
DWIDTH 13 0
BBX 12 13 0 2
BITMAP
3CF0
3CF0
3CF0
79E0
79E0
F3C0
F3C0
F3C0
79E0
79E0
3CF0
3CF0
3CF0
ENDCHAR
STARTCHAR 00AC.uni00AC
ENCODING 172
SWIDTH 609 0
DWIDTH 13 0
BBX 11 8 1 5
BITMAP
FFE0
FFE0
FFE0
FFE0
FFE0
03E0
03E0
03E0
ENDCHAR
STARTCHAR 00AD.uni00AD
ENCODING 173
SWIDTH 609 0
DWIDTH 13 0
BBX 9 5 2 6
BITMAP
FF80
FF80
FF80
FF80
FF80
ENDCHAR
STARTCHAR 00AE.uni00AE
ENCODING 174
SWIDTH 609 0
DWIDTH 13 0
BBX 15 20 -1 -1
BITMAP
0FE0
3FF8
7FFC
7FFC
FFFE
F83E
F79E
F7DE
F7DE
F6DE
F7DE
F79E
F6DE
F6DE
F83E
FFFE
7FFC
7FFC
3FF8
0FE0
ENDCHAR
STARTCHAR 00AF.uni00AF
ENCODING 175
SWIDTH 609 0
DWIDTH 13 0
BBX 13 5 0 17
BITMAP
FFF8
FFF8
FFF8
FFF8
FFF8
ENDCHAR
STARTCHAR 00B0.uni00B0
ENCODING 176
SWIDTH 609 0
DWIDTH 13 0
BBX 9 9 2 15
BITMAP
3E00
7F00
FF80
F780
E380
F780
FF80
7F00
3E00
ENDCHAR
STARTCHAR 00B1.uni00B1
ENCODING 177
SWIDTH 609 0
DWIDTH 13 0
BBX 11 18 1 1
BITMAP
1F00
1F00
1F00
FFE0
FFE0
FFE0
FFE0
FFE0
1F00
1F00
1F00
0000
0000
FFE0
FFE0
FFE0
FFE0
FFE0
ENDCHAR
STARTCHAR 00B2.uni00B2
ENCODING 178
SWIDTH 609 0
DWIDTH 13 0
BBX 7 11 4 9
BITMAP
3800
7C00
FE00
EE00
0E00
1E00
3C00
7800
FE00
FE00
FE00
ENDCHAR
STARTCHAR 00B3.uni00B3
ENCODING 179
SWIDTH 609 0
DWIDTH 13 0
BBX 7 11 4 9
BITMAP
7C00
FE00
FE00
EE00
0E00
3C00
0E00
EE00
FE00
FE00
7C00
ENDCHAR
STARTCHAR 00B4.uni00B4
ENCODING 180
SWIDTH 609 0
DWIDTH 13 0
BBX 9 9 2 15
BITMAP
0780
0F80
1F80
3F80
7F00
FE00
FC00
F800
F000
ENDCHAR
STARTCHAR 00B5.uni00B5
ENCODING 181
SWIDTH 609 0
DWIDTH 13 0
BBX 15 21 -1 -6
BITMAP
F83E
F83E
F83E
F83E
F83E
F83E
F83E
F83E
F83E
F83E
FC7E
FFFE
FFFE
FFFE
FFBE
F800
F800
F800
F800
F800
F800
ENDCHAR
STARTCHAR 00B6.uni00B6
ENCODING 182
SWIDTH 609 0
DWIDTH 13 0
BBX 15 23 -1 0
BITMAP
1FFE
7FFE
7FFE
FFFE
FF3E
DF3E
DF3E
FF3E
FF3E
7F3E
7F3E
3F3E
1F3E
1F3E
1F3E
1F3E
1F3E
1F3E
1F3E
7F3E
7F3E
7F3E
7F3E
ENDCHAR
STARTCHAR 00B7.uni00B7
ENCODING 183
SWIDTH 609 0
DWIDTH 13 0
BBX 6 6 3 6
BITMAP
7800
FC00
FC00
FC00
FC00
7800
ENDCHAR
STARTCHAR 00B8.uni00B8
ENCODING 184
SWIDTH 609 0
DWIDTH 13 0
BBX 11 7 1 -5
BITMAP
0E00
0F80
0FE0
E3E0
FFE0
FFE0
7F00
ENDCHAR
STARTCHAR 00B9.uni00B9
ENCODING 185
SWIDTH 609 0
DWIDTH 13 0
BBX 7 11 4 9
BITMAP
3C00
7C00
FC00
DC00
1C00
1C00
1C00
1C00
7E00
7E00
7E00
ENDCHAR
STARTCHAR 00BA.uni00BA
ENCODING 186
SWIDTH 609 0
DWIDTH 13 0
BBX 9 9 2 15
BITMAP
3E00
7F00
FF80
F780
E380
F780
FF80
7F00
3E00
ENDCHAR
STARTCHAR 00BB.uni00BB
ENCODING 187
SWIDTH 609 0
DWIDTH 13 0
BBX 12 13 0 2
BITMAP
F3C0
F3C0
F3C0
79E0
79E0
3CF0
3CF0
7DF0
79E0
79E0
F3C0
F3C0
F3C0
ENDCHAR
STARTCHAR 00BC.uni00BC
ENCODING 188
SWIDTH 609 0
DWIDTH 13 0
BBX 13 23 0 0
BITMAP
3C00
7C00
FC00
DC00
1C00
1C00
1C18
1C38
7E70
7EE0
7FC0
0380
0770
0EF0
1DF0
3BF0
7770
EE70
CFF8
0FF8
0FF8
0070
0070
ENDCHAR
STARTCHAR 00BD.uni00BD
ENCODING 189
SWIDTH 609 0
DWIDTH 13 0
BBX 13 23 0 0
BITMAP
3C00
7C00
FC00
DC00
1C00
1C00
1C00
1C38
7E78
7EF0
7FE0
0380
07E0
0FF0
1FF8
3DB8
7838
F078
E0F0
C1E0
03F8
03F8
03F8
ENDCHAR
STARTCHAR 00BE.uni00BE
ENCODING 190
SWIDTH 609 0
DWIDTH 13 0
BBX 13 23 0 0
BITMAP
7C00
FE00
FE00
EE00
0E00
3C00
0E18
EE38
FE70
FEE0
7DC0
0380
0770
0EF0
1DF0
3BF0
7770
EE70
CFF8
0FF8
0FF8
0070
0070
ENDCHAR
STARTCHAR 00BF.uni00BF
ENCODING 191
SWIDTH 609 0
DWIDTH 13 0
BBX 13 23 0 -5
BITMAP
0E00
1F00
1F00
1F00
0E00
0000
0000
1F00
1F00
1F80
1FC0
0FE0
07F0
03F0
01F8
00F8
00F8
F8F8
FDF8
7FF0
7FF0
3FE0
0F80
ENDCHAR
STARTCHAR 00C0.uni00C0
ENCODING 192
SWIDTH 609 0
DWIDTH 13 0
BBX 15 28 -1 0
BITMAP
3E00
1F00
0F80
07C0
0000
0FE0
0FE0
0FE0
0FE0
0FE0
1FF0
1FF0
1EF0
1EF0
3EF8
3EF8
3C78
3C78
7FFC
7FFC
7FFC
7FFC
783C
F83E
FC7E
FC7E
FC7E
FC7E
ENDCHAR
STARTCHAR 00C1.uni00C1
ENCODING 193
SWIDTH 609 0
DWIDTH 13 0
BBX 15 28 -1 0
BITMAP
00F8
01F0
03E0
07C0
0000
0FE0
0FE0
0FE0
0FE0
0FE0
1FF0
1FF0
1EF0
1EF0
3EF8
3EF8
3C78
3C78
7FFC
7FFC
7FFC
7FFC
783C
F83E
FC7E
FC7E
FC7E
FC7E
ENDCHAR
STARTCHAR 00C2.uni00C2
ENCODING 194
SWIDTH 609 0
DWIDTH 13 0
BBX 15 29 -1 0
BITMAP
0380
07C0
0FE0
1EF0
3C78
0000
0FE0
0FE0
0FE0
0FE0
0FE0
1FF0
1FF0
1EF0
1EF0
3EF8
3EF8
3C78
3C78
7FFC
7FFC
7FFC
7FFC
783C
F83E
FC7E
FC7E
FC7E
FC7E
ENDCHAR
STARTCHAR 00C3.uni00C3
ENCODING 195
SWIDTH 609 0
DWIDTH 13 0
BBX 15 28 -1 0
BITMAP
1F3C
3FBC
7BF8
79F0
0000
0FE0
0FE0
0FE0
0FE0
0FE0
1FF0
1FF0
1EF0
1EF0
3EF8
3EF8
3C78
3C78
7FFC
7FFC
7FFC
7FFC
783C
F83E
FC7E
FC7E
FC7E
FC7E
ENDCHAR
STARTCHAR 00C4.uni00C4
ENCODING 196
SWIDTH 609 0
DWIDTH 13 0
BBX 15 29 -1 0
BITMAP
1C70
3EF8
3EF8
3EF8
1C70
0000
0FE0
0FE0
0FE0
0FE0
0FE0
1FF0
1FF0
1EF0
1EF0
3EF8
3EF8
3C78
3C78
7FFC
7FFC
7FFC
7FFC
783C
F83E
FC7E
FC7E
FC7E
FC7E
ENDCHAR
STARTCHAR 00C5.uni00C5
ENCODING 197
SWIDTH 609 0
DWIDTH 13 0
BBX 15 29 -1 0
BITMAP
07C0
0FE0
0EE0
0FE0
07C0
0000
0FE0
0FE0
0FE0
0FE0
0FE0
1FF0
1FF0
1EF0
1EF0
3EF8
3EF8
3C78
3C78
7FFC
7FFC
7FFC
7FFC
783C
F83E
FC7E
FC7E
FC7E
FC7E
ENDCHAR
STARTCHAR 00C6.uni00C6
ENCODING 198
SWIDTH 609 0
DWIDTH 13 0
BBX 14 23 -1 0
BITMAP
07FC
0FFC
0FFC
0FFC
0FFC
1FE0
1FE0
1FE0
1FFC
3FFC
3DFC
3DFC
3DFC
3DE0
7DE0
7DE0
7FE0
7FE0
FFFC
F9FC
F9FC
F9FC
F9FC
ENDCHAR
STARTCHAR 00C7.uni00C7
ENCODING 199
SWIDTH 609 0
DWIDTH 13 0
BBX 13 29 0 -6
BITMAP
1FC0
3FE0
7FF0
7FF0
FFF8
F9F8
F8F8
F8F8
F800
F800
F800
F800
F800
F800
F800
F8F8
F8F8
F9F8
FFF8
FFF8
7FF8
3FF0
1FE0
0780
03C0
71E0
78E0
3FE0
1FC0
ENDCHAR
STARTCHAR 00C8.uni00C8
ENCODING 200
SWIDTH 609 0
DWIDTH 13 0
BBX 13 28 0 0
BITMAP
7C00
3E00
1F00
0F80
0000
FFF8
FFF8
FFF8
FFF8
FFF8
F800
F800
F800
FFE0
FFE0
FFE0
FFE0
FFE0
F800
F800
F800
F800
F800
FFF8
FFF8
FFF8
FFF8
FFF8
ENDCHAR
STARTCHAR 00C9.uni00C9
ENCODING 201
SWIDTH 609 0
DWIDTH 13 0
BBX 13 28 0 0
BITMAP
01F0
03E0
07C0
0F80
0000
FFF8
FFF8
FFF8
FFF8
FFF8
F800
F800
F800
FFE0
FFE0
FFE0
FFE0
FFE0
F800
F800
F800
F800
F800
FFF8
FFF8
FFF8
FFF8
FFF8
ENDCHAR
STARTCHAR 00CA.uni00CA
ENCODING 202
SWIDTH 609 0
DWIDTH 13 0
BBX 13 29 0 0
BITMAP
0700
0F80
1FC0
3DE0
78F0
0000
FFF8
FFF8
FFF8
FFF8
FFF8
F800
F800
F800
FFE0
FFE0
FFE0
FFE0
FFE0
F800
F800
F800
F800
F800
FFF8
FFF8
FFF8
FFF8
FFF8
ENDCHAR
STARTCHAR 00CB.uni00CB
ENCODING 203
SWIDTH 609 0
DWIDTH 13 0
BBX 13 29 0 0
BITMAP
38E0
7DF0
7DF0
7DF0
38E0
0000
FFF8
FFF8
FFF8
FFF8
FFF8
F800
F800
F800
FFE0
FFE0
FFE0
FFE0
FFE0
F800
F800
F800
F800
F800
FFF8
FFF8
FFF8
FFF8
FFF8
ENDCHAR
STARTCHAR 00CC.uni00CC
ENCODING 204
SWIDTH 609 0
DWIDTH 13 0
BBX 13 28 0 0
BITMAP
7C00
3E00
1F00
0F80
0000
FFF8
FFF8
FFF8
FFF8
0F80
0F80
0F80
0F80
0F80
0F80
0F80
0F80
0F80
0F80
0F80
0F80
0F80
0F80
0F80
FFF8
FFF8
FFF8
FFF8
ENDCHAR
STARTCHAR 00CD.uni00CD
ENCODING 205
SWIDTH 609 0
DWIDTH 13 0
BBX 13 28 0 0
BITMAP
01F0
03E0
07C0
0F80
0000
FFF8
FFF8
FFF8
FFF8
0F80
0F80
0F80
0F80
0F80
0F80
0F80
0F80
0F80
0F80
0F80
0F80
0F80
0F80
0F80
FFF8
FFF8
FFF8
FFF8
ENDCHAR
STARTCHAR 00CE.uni00CE
ENCODING 206
SWIDTH 609 0
DWIDTH 13 0
BBX 13 29 0 0
BITMAP
0700
0F80
1FC0
3DE0
78F0
0000
FFF8
FFF8
FFF8
FFF8
0F80
0F80
0F80
0F80
0F80
0F80
0F80
0F80
0F80
0F80
0F80
0F80
0F80
0F80
0F80
FFF8
FFF8
FFF8
FFF8
ENDCHAR
STARTCHAR 00CF.uni00CF
ENCODING 207
SWIDTH 609 0
DWIDTH 13 0
BBX 13 29 0 0
BITMAP
38E0
7DF0
7DF0
7DF0
38E0
0000
FFF8
FFF8
FFF8
FFF8
0F80
0F80
0F80
0F80
0F80
0F80
0F80
0F80
0F80
0F80
0F80
0F80
0F80
0F80
0F80
FFF8
FFF8
FFF8
FFF8
ENDCHAR
STARTCHAR 00D0.uni00D0
ENCODING 208
SWIDTH 609 0
DWIDTH 13 0
BBX 14 23 -1 0
BITMAP
7FE0
7FF0
7FF0
7FF8
7FF8
7CFC
7C7C
7C7C
7C7C
FF7C
FF7C
FF7C
FF7C
FF7C
7C7C
7C7C
7C7C
7CFC
7FF8
7FF8
7FF0
7FF0
7FE0
ENDCHAR
STARTCHAR 00D1.uni00D1
ENCODING 209
SWIDTH 609 0
DWIDTH 13 0
BBX 13 28 0 0
BITMAP
3E78
7F78
F7F0
F3E0
0000
F8F8
F8F8
F8F8
FCF8
FCF8
FCF8
FEF8
FEF8
FEF8
FEF8
FFF8
FFF8
FBF8
FBF8
FBF8
FBF8
F9F8
F9F8
F9F8
F9F8
F8F8
F8F8
F8F8
ENDCHAR
STARTCHAR 00D2.uni00D2
ENCODING 210
SWIDTH 609 0
DWIDTH 13 0
BBX 13 28 0 0
BITMAP
7C00
3E00
1F00
0F80
0000
0F80
3FE0
7FF0
7FF0
FFF8
FDF8
F8F8
F8F8
F8F8
F8F8
F8F8
F8F8
F8F8
F8F8
F8F8
F8F8
F8F8
FDF8
FFF8
7FF0
7FF0
3FE0
0F80
ENDCHAR
STARTCHAR 00D3.uni00D3
ENCODING 211
SWIDTH 609 0
DWIDTH 13 0
BBX 13 28 0 0
BITMAP
01F0
03E0
07C0
0F80
0000
0F80
3FE0
7FF0
7FF0
FFF8
FDF8
F8F8
F8F8
F8F8
F8F8
F8F8
F8F8
F8F8
F8F8
F8F8
F8F8
F8F8
FDF8
FFF8
7FF0
7FF0
3FE0
0F80
ENDCHAR
STARTCHAR 00D4.uni00D4
ENCODING 212
SWIDTH 609 0
DWIDTH 13 0
BBX 13 29 0 0
BITMAP
0700
0F80
1FC0
3DE0
78F0
0000
0F80
3FE0
7FF0
7FF0
FFF8
FDF8
F8F8
F8F8
F8F8
F8F8
F8F8
F8F8
F8F8
F8F8
F8F8
F8F8
F8F8
FDF8
FFF8
7FF0
7FF0
3FE0
0F80
ENDCHAR
STARTCHAR 00D5.uni00D5
ENCODING 213
SWIDTH 609 0
DWIDTH 13 0
BBX 14 28 0 0
BITMAP
0F3C
1E78
3CF0
79E0
0000
0F80
3FE0
7FF0
7FF0
FFF8
FDF8
F8F8
F8F8
F8F8
F8F8
F8F8
F8F8
F8F8
F8F8
F8F8
F8F8
F8F8
FDF8
FFF8
7FF0
7FF0
3FE0
0F80
ENDCHAR
STARTCHAR 00D6.uni00D6
ENCODING 214
SWIDTH 609 0
DWIDTH 13 0
BBX 13 29 0 0
BITMAP
38E0
7DF0
7DF0
7DF0
38E0
0000
0F80
3FE0
7FF0
7FF0
FFF8
FDF8
F8F8
F8F8
F8F8
F8F8
F8F8
F8F8
F8F8
F8F8
F8F8
F8F8
F8F8
FDF8
FFF8
7FF0
7FF0
3FE0
0F80
ENDCHAR
STARTCHAR 00D7.uni00D7
ENCODING 215
SWIDTH 609 0
DWIDTH 13 0
BBX 13 15 0 0
BITMAP
F078
F8F8
FDF8
FFF8
7FF0
3FE0
1FC0
0F80
1FC0
3FE0
7FF0
FFF8
FDF8
F8F8
F078
ENDCHAR
STARTCHAR 00D8.uni00D8
ENCODING 216
SWIDTH 609 0
DWIDTH 13 0
BBX 13 15 0 0
BITMAP
0FB8
3FF8
7FF8
7FF0
FFF8
FBF8
FFF8
FFF8
FFF8
FEF8
FFF8
7FF0
FFF0
FFE0
EF80
ENDCHAR
STARTCHAR 00D9.uni00D9
ENCODING 217
SWIDTH 609 0
DWIDTH 13 0
BBX 15 28 -1 0
BITMAP
3E00
1F00
0F80
07C0
0000
F83E
F83E
F83E
F83E
F83E
F83E
F83E
F83E
F83E
F83E
F83E
F83E
F83E
F83E
F83E
F83E
F83E
F83E
FC7E
FFFE
7FFC
3FF8
1FF0
ENDCHAR
STARTCHAR 00DA.uni00DA
ENCODING 218
SWIDTH 609 0
DWIDTH 13 0
BBX 15 28 -1 0
BITMAP
00F8
01F0
03E0
07C0
0000
F83E
F83E
F83E
F83E
F83E
F83E
F83E
F83E
F83E
F83E
F83E
F83E
F83E
F83E
F83E
F83E
F83E
F83E
FC7E
FFFE
7FFC
3FF8
1FF0
ENDCHAR
STARTCHAR 00DB.uni00DB
ENCODING 219
SWIDTH 609 0
DWIDTH 13 0
BBX 15 28 -1 0
BITMAP
079E
0F3C
1E78
3CF0
0000
F83E
F83E
F83E
F83E
F83E
F83E
F83E
F83E
F83E
F83E
F83E
F83E
F83E
F83E
F83E
F83E
F83E
F83E
FC7E
FFFE
7FFC
3FF8
1FF0
ENDCHAR
STARTCHAR 00DC.uni00DC
ENCODING 220
SWIDTH 609 0
DWIDTH 13 0
BBX 15 29 -1 0
BITMAP
1C70
3EF8
3EF8
3EF8
1C70
0000
F83E
F83E
F83E
F83E
F83E
F83E
F83E
F83E
F83E
F83E
F83E
F83E
F83E
F83E
F83E
F83E
F83E
F83E
FC7E
FFFE
7FFC
3FF8
1FF0
ENDCHAR
STARTCHAR 00DD.uni00DD
ENCODING 221
SWIDTH 609 0
DWIDTH 13 0
BBX 15 28 -1 0
BITMAP
00F8
01F0
03E0
07C0
0000
F83E
F83E
F83E
7C7C
7C7C
3EF8
3EF8
1FF0
1FF0
0FE0
0FE0
07C0
07C0
07C0
07C0
07C0
07C0
07C0
07C0
07C0
07C0
07C0
07C0
ENDCHAR
STARTCHAR 00DE.uni00DE
ENCODING 222
SWIDTH 609 0
DWIDTH 13 0
BBX 13 23 0 0
BITMAP
FF00
FF00
FF00
FF00
F800
FF80
FFE0
FFF0
FFF0
FFF8
F9F8
F8F8
F9F8
FFF8
FFF0
FFF0
FFE0
FF80
F800
FF00
FF00
FF00
FF00
ENDCHAR
STARTCHAR 00DF.uni00DF
ENCODING 223
SWIDTH 609 0
DWIDTH 13 0
BBX 13 23 0 0
BITMAP
3F80
7FC0
FFE0
FFF0
F9F0
F8F0
F9F0
FFE0
FFC0
FFE0
FFF0
FFF8
F9F8
F8F8
F8F8
F8F8
F8F8
F8F8
F9F8
FBF8
FBF0
FBE0
F3E0
ENDCHAR
STARTCHAR 00E0.uni00E0
ENCODING 224
SWIDTH 609 0
DWIDTH 13 0
BBX 13 21 0 0
BITMAP
7C00
3E00
1F00
0F80
0000
0000
3FC0
7FE0
FFF0
FFF8
F0F8
0078
7FF8
FFF8
FFF8
F0F8
FFF8
FFF8
FFF8
7FF8
3F38
ENDCHAR
STARTCHAR 00E1.uni00E1
ENCODING 225
SWIDTH 609 0
DWIDTH 13 0
BBX 13 21 0 0
BITMAP
01F0
03E0
07C0
0F80
0000
0000
3FC0
7FE0
FFF0
FFF8
F0F8
0078
7FF8
FFF8
FFF8
F0F8
FFF8
FFF8
FFF8
7FF8
3F38
ENDCHAR
STARTCHAR 00E2.uni00E2
ENCODING 226
SWIDTH 609 0
DWIDTH 13 0
BBX 13 23 0 0
BITMAP
0200
0700
0F80
1FC0
3DE0
78F0
0000
0000
3FC0
7FE0
FFF0
FFF8
F0F8
0078
7FF8
FFF8
FFF8
F0F8
FFF8
FFF8
FFF8
7FF8
3F38
ENDCHAR
STARTCHAR 00E3.uni00E3
ENCODING 227
SWIDTH 609 0
DWIDTH 13 0
BBX 13 21 0 0
BITMAP
3E78
7F78
F7F0
F3E0
0000
0000
3FC0
7FE0
FFF0
FFF8
F0F8
0078
7FF8
FFF8
FFF8
F0F8
FFF8
FFF8
FFF8
7FF8
3F38
ENDCHAR
STARTCHAR 00E4.uni00E4
ENCODING 228
SWIDTH 609 0
DWIDTH 13 0
BBX 13 22 0 0
BITMAP
38E0
7DF0
7DF0
7DF0
38E0
0000
0000
3FC0
7FE0
FFF0
FFF8
F0F8
0078
7FF8
FFF8
FFF8
F0F8
FFF8
FFF8
FFF8
7FF8
3F38
ENDCHAR
STARTCHAR 00E5.uni00E5
ENCODING 229
SWIDTH 609 0
DWIDTH 13 0
BBX 13 23 0 0
BITMAP
0F80
1FC0
1DC0
18C0
1DC0
1FC0
0F80
0000
3FC0
7FE0
FFF0
FFF8
F0F8
0078
7FF8
FFF8
FFF8
F0F8
FFF8
FFF8
FFF8
7FF8
3F38
ENDCHAR
STARTCHAR 00E6.uni00E6
ENCODING 230
SWIDTH 609 0
DWIDTH 13 0
BBX 13 15 0 0
BITMAP
7CE0
FFF0
FFF8
F7B8
0798
3FF8
7FF8
7FF8
FF80
F7B8
F7B8
F7F8
FFF8
7FF0
39E0
ENDCHAR
STARTCHAR 00E7.uni00E7
ENCODING 231
SWIDTH 609 0
DWIDTH 13 0
BBX 13 21 0 -6
BITMAP
1FC0
3FE0
7FF0
FFF8
FFF8
F8F8
F800
F800
F800
F8F8
FFF8
FFF8
7FF0
3FE0
1FC0
0780
73E0
71F0
78F0
3FF0
1FC0
ENDCHAR
STARTCHAR 00E8.uni00E8
ENCODING 232
SWIDTH 609 0
DWIDTH 13 0
BBX 13 21 0 0
BITMAP
7C00
3E00
1F00
0F80
0000
0000
3FE0
7FF0
FFF8
FFF8
FCF8
F878
FFF8
FFF8
FFF8
F800
F8F8
FFF8
FFF8
7FF0
3FE0
ENDCHAR
STARTCHAR 00E9.uni00E9
ENCODING 233
SWIDTH 609 0
DWIDTH 13 0
BBX 13 21 0 0
BITMAP
01F0
03E0
07C0
0F80
0000
0000
3FE0
7FF0
FFF8
FFF8
FCF8
F878
FFF8
FFF8
FFF8
F800
F8F8
FFF8
FFF8
7FF0
3FE0
ENDCHAR
STARTCHAR 00EA.uni00EA
ENCODING 234
SWIDTH 609 0
DWIDTH 13 0
BBX 13 23 0 0
BITMAP
0200
0700
0F80
1FC0
3DE0
78F0
0000
0000
3FE0
7FF0
FFF8
FFF8
FCF8
F878
FFF8
FFF8
FFF8
F800
F8F8
FFF8
FFF8
7FF0
3FE0
ENDCHAR
STARTCHAR 00EB.uni00EB
ENCODING 235
SWIDTH 609 0
DWIDTH 13 0
BBX 13 22 0 0
BITMAP
38E0
7DF0
7DF0
7DF0
38E0
0000
0000
3FE0
7FF0
FFF8
FFF8
FCF8
F878
FFF8
FFF8
FFF8
F800
F8F8
FFF8
FFF8
7FF0
3FE0
ENDCHAR
STARTCHAR 00EC.uni00EC
ENCODING 236
SWIDTH 609 0
DWIDTH 13 0
BBX 12 21 0 0
BITMAP
F800
7C00
3E00
1F00
0000
0000
7F80
7F80
7F80
7F80
7F80
0F80
0F80
0F80
0F80
0F80
7FF0
7FF0
7FF0
7FF0
7FF0
ENDCHAR
STARTCHAR 00ED.uni00ED
ENCODING 237
SWIDTH 609 0
DWIDTH 13 0
BBX 11 21 1 0
BITMAP
03E0
07C0
0F80
1F00
0000
0000
FF00
FF00
FF00
FF00
FF00
1F00
1F00
1F00
1F00
1F00
FFE0
FFE0
FFE0
FFE0
FFE0
ENDCHAR
STARTCHAR 00EE.uni00EE
ENCODING 238
SWIDTH 609 0
DWIDTH 13 0
BBX 12 22 0 0
BITMAP
0400
0E00
1F00
3F80
7BC0
F1E0
0000
7F80
7F80
7F80
7F80
7F80
0F80
0F80
0F80
0F80
0F80
7FF0
7FF0
7FF0
7FF0
7FF0
ENDCHAR
STARTCHAR 00EF.uni00EF
ENCODING 239
SWIDTH 609 0
DWIDTH 13 0
BBX 12 22 0 0
BITMAP
70E0
F9F0
F9F0
F9F0
70E0
0000
0000
7F80
7F80
7F80
7F80
7F80
0F80
0F80
0F80
0F80
0F80
7FF0
7FF0
7FF0
7FF0
7FF0
ENDCHAR
STARTCHAR 00F0.uni00F0
ENCODING 240
SWIDTH 609 0
DWIDTH 13 0
BBX 13 25 0 0
BITMAP
0060
00E0
7DE0
7FC0
FF80
FFC0
DFC0
3FE0
7BF0
71F8
0FF8
3FF8
7FF8
7FF8
FFF8
FDF8
F8F8
F8F8
F8F8
FDF8
FFF8
7FF0
7FF0
3FE0
0F80
ENDCHAR
STARTCHAR 00F1.uni00F1
ENCODING 241
SWIDTH 609 0
DWIDTH 13 0
BBX 15 21 -1 0
BITMAP
1F3C
3FBC
7BF8
79F0
0000
0000
F7F8
FFFC
FFFE
FFFE
FFFE
FC7E
F83E
F83E
F83E
F83E
F83E
F83E
F83E
F83E
F83E
ENDCHAR
STARTCHAR 00F2.uni00F2
ENCODING 242
SWIDTH 609 0
DWIDTH 13 0
BBX 13 21 0 0
BITMAP
7C00
3E00
1F00
0F80
0000
0000
1FC0
7FF0
7FF0
FFF8
FFF8
FDF8
F8F8
F8F8
F8F8
FDF8
FFF8
FFF8
7FF0
7FF0
1FC0
ENDCHAR
STARTCHAR 00F3.uni00F3
ENCODING 243
SWIDTH 609 0
DWIDTH 13 0
BBX 13 21 0 0
BITMAP
01F0
03E0
07C0
0F80
0000
0000
1FC0
7FF0
7FF0
FFF8
FFF8
FDF8
F8F8
F8F8
F8F8
FDF8
FFF8
FFF8
7FF0
7FF0
1FC0
ENDCHAR
STARTCHAR 00F4.uni00F4
ENCODING 244
SWIDTH 609 0
DWIDTH 13 0
BBX 13 22 0 0
BITMAP
0200
0700
0F80
1DC0
38E0
0000
0000
1FC0
7FF0
7FF0
FFF8
FFF8
FDF8
F8F8
F8F8
F8F8
FDF8
FFF8
FFF8
7FF0
7FF0
1FC0
ENDCHAR
STARTCHAR 00F5.uni00F5
ENCODING 245
SWIDTH 609 0
DWIDTH 13 0
BBX 13 21 0 0
BITMAP
0738
0E70
1CE0
39C0
0000
0000
1FC0
7FF0
7FF0
FFF8
FFF8
FDF8
F8F8
F8F8
F8F8
FDF8
FFF8
FFF8
7FF0
7FF0
1FC0
ENDCHAR
STARTCHAR 00F6.uni00F6
ENCODING 246
SWIDTH 609 0
DWIDTH 13 0
BBX 13 22 0 0
BITMAP
38E0
7DF0
7DF0
7DF0
38E0
0000
0000
1FC0
7FF0
7FF0
FFF8
FFF8
FDF8
F8F8
F8F8
F8F8
FDF8
FFF8
FFF8
7FF0
7FF0
1FC0
ENDCHAR
STARTCHAR 00F7.uni00F7
ENCODING 247
SWIDTH 609 0
DWIDTH 13 0
BBX 13 19 0 -1
BITMAP
0700
0F80
0F80
0F80
0700
0000
0000
FFF8
FFF8
FFF8
FFF8
FFF8
0000
0000
0700
0F80
0F80
0F80
0700
ENDCHAR
STARTCHAR 00F8.uni00F8
ENCODING 248
SWIDTH 609 0
DWIDTH 13 0
BBX 13 15 0 0
BITMAP
0FB8
3FF8
7FF8
7FF0
FFF8
FBF8
FFF8
FFF8
FFF8
FEF8
FFF8
7FF0
FFF0
FFE0
EF80
ENDCHAR
STARTCHAR 00F9.uni00F9
ENCODING 249
SWIDTH 609 0
DWIDTH 13 0
BBX 15 21 -1 0
BITMAP
3E00
1F00
0F80
07C0
0000
0000
FC3E
FC3E
FC3E
FC3E
FC3E
7C3E
7C3E
7C3E
7C3E
7E3E
7FFE
7FFE
3FFE
3FFE
0FDE
ENDCHAR
STARTCHAR 00FA.uni00FA
ENCODING 250
SWIDTH 609 0
DWIDTH 13 0
BBX 15 21 -1 0
BITMAP
00F8
01F0
03E0
07C0
0000
0000
FC3E
FC3E
FC3E
FC3E
FC3E
7C3E
7C3E
7C3E
7C3E
7E3E
7FFE
7FFE
3FFE
3FFE
0FDE
ENDCHAR
STARTCHAR 00FB.uni00FB
ENCODING 251
SWIDTH 609 0
DWIDTH 13 0
BBX 15 21 -1 0
BITMAP
039C
0738
0E70
1CE0
0000
0000
FC3E
FC3E
FC3E
FC3E
FC3E
7C3E
7C3E
7C3E
7C3E
7E3E
7FFE
7FFE
3FFE
3FFE
0FDE
ENDCHAR
STARTCHAR 00FC.uni00FC
ENCODING 252
SWIDTH 609 0
DWIDTH 13 0
BBX 15 22 -1 0
BITMAP
1C70
3EF8
3EF8
3EF8
1C70
0000
0000
FC3E
FC3E
FC3E
FC3E
FC3E
7C3E
7C3E
7C3E
7C3E
7E3E
7FFE
7FFE
3FFE
3FFE
0FDE
ENDCHAR
STARTCHAR 00FD.uni00FD
ENCODING 253
SWIDTH 609 0
DWIDTH 13 0
BBX 15 27 -1 -6
BITMAP
3E00
1F00
0F80
07C0
0000
0000
F83E
F83E
F83E
F83E
7C7C
7C7C
7C7C
3EF8
3EF8
3EF8
1EF0
1FF0
1FF0
0FE0
0FE0
03C0
1BC0
1FC0
1FC0
1F80
1F00
ENDCHAR
STARTCHAR 00FE.uni00FE
ENCODING 254
SWIDTH 609 0
DWIDTH 13 0
BBX 12 15 0 0
BITMAP
FF00
FF00
FF00
F800
FFE0
FFF0
F9F0
F9F0
FFF0
FFE0
F800
FF00
FF00
FF00
FF00
ENDCHAR
STARTCHAR 00FF.uni00FF
ENCODING 255
SWIDTH 609 0
DWIDTH 13 0
BBX 15 28 -1 -6
BITMAP
1C70
3EF8
3EF8
3EF8
1C70
0000
0000
F83E
F83E
F83E
F83E
7C7C
7C7C
7C7C
3EF8
3EF8
3EF8
1EF0
1FF0
1FF0
0FE0
0FE0
03C0
1BC0
1FC0
1FC0
1F80
1F00
ENDCHAR
ENDFONT
